<?xml version="1.0" encoding="UTF-8" standalone="no"?>
<svg
   xmlns:dc="http://purl.org/dc/elements/1.1/"
   xmlns:cc="http://creativecommons.org/ns#"
   xmlns:rdf="http://www.w3.org/1999/02/22-rdf-syntax-ns#"
   xmlns:svg="http://www.w3.org/2000/svg"
   xmlns="http://www.w3.org/2000/svg"
   viewBox="0 0 301 315"
   height="315"
   width="301"
   version="1.1"
   id="svg3346">

  <defs
     id="defs3350" />
  <path
     id="path3438"
     d="M 90.818719,280.99529 C 57.24287,262.77339 29.429073,247.72123 29.010268,247.54604 28.108699,247.1689 7.6739169,55.666147 8.452899,54.89434 8.746395,54.603542 39.874203,43.414654 77.625802,30.030142 115.37741,16.64563 147.60996,5.0371749 149.25369,4.2335757 c 2.77748,-1.3578779 7.99906,0.3386523 73.9179,24.0164273 39.01112,14.012633 71.17545,25.721389 71.47628,26.019455 0.96732,0.958424 -18.2815,188.077042 -19.50681,189.626412 -0.64973,0.82157 -26.63625,15.80727 -57.74782,33.30154 -31.11157,17.49428 -58.58271,32.95997 -61.047,34.3682 l -4.48051,2.56041 -61.047011,-33.13073 z m 8.458843,-62.90061 8.903148,-21.91899 20.16232,-0.82776 c 11.08927,-0.45528 29.67468,-0.70499 41.30091,-0.55492 l 21.13858,0.27285 9.72526,22.19645 9.72526,22.19645 17.02164,0.30637 c 9.3619,0.16849 17.02164,-0.01 17.02164,-0.39623 0,-0.64992 -10.02864,-22.17942 -70.78248,-151.955819 -12.28747,-26.247304 -22.73508,-48.122027 -23.2169,-48.6105 -0.85885,-0.870702 -7.62655,13.267792 -57.799098,120.748969 -13.677003,29.29931 -27.011572,57.76626 -29.632359,63.25988 -2.620798,5.49362 -5.470651,11.61151 -6.333004,13.59532 l -1.567933,3.60693 17.714931,0 17.714943,0 8.903142,-21.919 z m 26.161158,-57.15586 c 8.03544,-18.4286 22.63918,-51.20626 23.46887,-52.6752 0.89865,-1.59102 1.131,-1.55474 2.15223,0.33609 1.68969,3.12851 26.0088,56.04009 26.0088,56.58788 0,0.25739 -12.07948,0.46798 -26.84327,0.46798 l -26.84329,0 2.05666,-4.71675 z m 109.66752,-54.3813 -0.35101,-3.60692 -7.56086,-0.32816 c -4.15848,-0.1805 -7.56087,-0.63214 -7.56087,-1.00365 0,-0.37153 3.37129,-6.966026 7.49176,-14.654443 7.2282,-13.487175 7.49419,-14.26523 7.56087,-22.11621 0.0664,-7.824307 -0.0716,-8.261795 -3.58899,-11.37568 -2.73313,-2.419584 -4.85734,-3.270745 -8.40096,-3.366231 -14.42192,-0.388612 -18.74448,3.083205 -18.74448,15.055291 l 0,6.159137 6.10217,0 6.10217,0 0.33857,-5.826568 c 0.28908,-4.974868 0.66604,-5.826568 2.57882,-5.826568 1.97786,0 2.23142,0.71495 2.16478,6.104024 -0.0676,5.465428 -0.97579,7.717114 -8.681,21.522777 -5.92785,10.621123 -8.60551,16.578031 -8.60551,19.144441 l 0,3.72568 15.75277,0 15.75277,0 -0.351,-3.60692 z"
     style="fill:#ef2e2e" />
</svg>
